<svg width="114" height="33" viewBox="0 0 114 33" fill="none" xmlns="http://www.w3.org/2000/svg">
<path d="M7.75 32.6C6.25 32.6 4.85 32.3167 3.55 31.75C2.25 31.1833 1.11667 30.3167 0.15 29.15L2.4 26L2.75 25.6L3.05 25.85C3.08333 26.1167 3.15 26.3833 3.25 26.65C3.38333 26.8833 3.65 27.1833 4.05 27.55C4.58333 27.95 5.13333 28.2667 5.7 28.5C6.26667 28.7 6.9 28.8 7.6 28.8C8.63333 28.8 9.48333 28.5667 10.15 28.1C10.8167 27.6 11.3 26.8 11.6 25.7C11.9333 24.6 12.1 23.1667 12.1 21.4V4.35H6.2V0.849999H21V4.35H16.3V21.5C16.3333 23.4667 16.1167 25.1667 15.65 26.6C15.2167 28 14.5833 29.15 13.75 30.05C12.95 30.95 12.0333 31.6 11 32C9.96667 32.4 8.88333 32.6 7.75 32.6ZM41 23.5H29.4L30.15 20.35H40.15L41 23.5ZM35.45 9.25L27.9 32H23.75L34.9 0.399999H36.1L47.25 32H42.95L35.45 9.25ZM62.15 32.5C60.45 32.5 58.85 32.2 57.35 31.6C55.8833 30.9667 54.5833 30 53.45 28.7C52.35 27.4 51.4833 25.75 50.85 23.75C50.2167 21.75 49.9 19.3667 49.9 16.6C49.9 14.1667 50.1333 12.05 50.6 10.25C51.0667 8.41667 51.7 6.88333 52.5 5.65C53.3333 4.38333 54.2667 3.38333 55.3 2.65C56.3667 1.91667 57.4667 1.38333 58.6 1.05C59.7667 0.716666 60.9333 0.55 62.1 0.55C64.4 0.55 66.35 1.1 67.95 2.2C69.5833 3.3 70.8167 4.78333 71.65 6.65L68.45 8.5L68 8.7L67.85 8.35C67.9167 8.08333 67.9 7.83333 67.8 7.6C67.7 7.36666 67.5167 7.01667 67.25 6.55C66.45 5.51667 65.6167 4.81667 64.75 4.45C63.9167 4.08333 63.0333 3.9 62.1 3.9C60.9333 3.9 59.85 4.18333 58.85 4.75C57.85 5.28333 56.9833 6.08333 56.25 7.15C55.5167 8.21667 54.95 9.53333 54.55 11.1C54.1833 12.6333 54 14.3833 54 16.35C54 18.25 54.2 19.9833 54.6 21.55C55.0333 23.0833 55.6167 24.4 56.35 25.5C57.0833 26.6 57.9333 27.45 58.9 28.05C59.9 28.65 60.9667 28.95 62.1 28.95C62.9333 28.95 63.7167 28.8167 64.45 28.55C65.2167 28.2833 65.9167 27.8667 66.55 27.3C67.1833 26.7333 67.7333 26.0667 68.2 25.3L71.2 27.4C70.1667 29.1333 68.9167 30.4167 67.45 31.25C65.9833 32.0833 64.2167 32.5 62.15 32.5ZM76.85 32V28.5H83V4.35H77.2V0.849999H93.25V4.35H87.1V28.55H93.55V32H76.85ZM109.9 32.55C109.033 32.55 108.283 32.25 107.65 31.65C107.017 31.0167 106.7 30.2667 106.7 29.4C106.7 28.5667 107.017 27.8333 107.65 27.2C108.283 26.5667 109.033 26.25 109.9 26.25C110.767 26.25 111.5 26.5667 112.1 27.2C112.733 27.8333 113.05 28.5667 113.05 29.4C113.05 30.2667 112.733 31.0167 112.1 31.65C111.5 32.25 110.767 32.55 109.9 32.55Z" fill="black"/>
</svg>
