<svg width="164" height="40" viewBox="0 0 164 40" fill="none" xmlns="http://www.w3.org/2000/svg">
<path d="M21.05 4.6V8.8L6.45 16.25C5.35 16.75 4.6 17 4.2 17V17.2C4.53333 17.2 5.28333 17.45 6.45 17.95L21.05 25.6V29.75L0.75 19.15V15.45L21.05 4.6ZM138.119 -2.38419e-06H142.119L115.669 39.5H111.869L138.119 -2.38419e-06ZM142.889 8.8V4.6L163.189 15.45V19.15L142.889 29.75V25.6L157.489 17.95C158.655 17.45 159.405 17.2 159.739 17.2V17C159.339 17 158.589 16.75 157.489 16.25L142.889 8.8Z" fill="#482F25"/>
<path d="M40.0313 -2.38419e-06H44.2313V30.5C44.2313 31.5 43.8313 32.3333 43.0313 33L41.8313 34C41.0313 34.6667 40.2313 35 39.4313 35H30.3313C29.5313 35 28.7313 34.6667 27.9313 34L26.7313 33C25.9313 32.3333 25.5313 31.5 25.5313 30.5V27H29.7313V29.45C29.7313 29.95 29.7479 30.2833 29.7813 30.45C29.8479 30.5833 30.0313 30.7667 30.3313 31C30.6313 31.2333 30.8646 31.3833 31.0313 31.45C31.1979 31.4833 31.5813 31.5 32.1813 31.5H37.5813C38.1813 31.5 38.5646 31.4833 38.7313 31.45C38.8979 31.3833 39.1313 31.2333 39.4313 31C39.7313 30.7667 39.8979 30.5833 39.9313 30.45C39.9979 30.2833 40.0313 29.95 40.0313 29.45V-2.38419e-06ZM69.8207 33H69.6207C69.6207 33.4 69.254 33.8167 68.5207 34.25C67.9207 34.6167 67.504 34.8333 67.2707 34.9C67.0707 34.9667 66.6707 35 66.0707 35H57.5207C56.7207 35 55.9207 34.6667 55.1207 34L53.9207 33C53.1207 32.3333 52.7207 31.5 52.7207 30.5V24.5C52.7207 23.5 53.1207 22.6667 53.9207 22L55.1207 21C55.9207 20.3333 56.7207 20 57.5207 20H66.4707C67.104 20 67.504 20.0333 67.6707 20.1C67.8374 20.1333 68.054 20.2667 68.3207 20.5C68.7207 20.8333 68.9207 21.1667 68.9207 21.5H69.1207V15.55C69.1207 15.05 69.0874 14.7333 69.0207 14.6C68.9874 14.4333 68.8207 14.2333 68.5207 14C68.2207 13.7667 67.9874 13.6333 67.8207 13.6C67.654 13.5333 67.2707 13.5 66.6707 13.5H58.5707C57.9707 13.5 57.554 13.55 57.3207 13.65C57.1207 13.7167 56.7207 14 56.1207 14.5L53.1207 12L54.3207 11C54.9207 10.5 55.3207 10.2167 55.5207 10.15C55.754 10.05 56.1707 10 56.7707 10H68.5207C69.3207 10 70.1207 10.3333 70.9207 11L72.1207 12C72.9207 12.6667 73.3207 13.5 73.3207 14.5V29.45C73.3207 29.95 73.3374 30.2833 73.3707 30.45C73.4374 30.5833 73.6207 30.7667 73.9207 31C74.2207 31.2333 74.3874 31.4333 74.4207 31.6C74.4874 31.7333 74.5207 32.05 74.5207 32.55V35H72.7707C72.1707 35 71.754 34.9667 71.5207 34.9C71.3207 34.8 71.0207 34.5833 70.6207 34.25C70.0874 33.8167 69.8207 33.4 69.8207 33ZM56.9207 25.55V29.45C56.9207 29.95 56.9374 30.2833 56.9707 30.45C57.0374 30.5833 57.2207 30.7667 57.5207 31C57.8207 31.2333 58.054 31.3833 58.2207 31.45C58.3874 31.4833 58.7707 31.5 59.3707 31.5H65.4707C66.0707 31.5 66.4707 31.4667 66.6707 31.4C66.904 31.3333 67.3207 31.1167 67.9207 30.75C68.5207 30.3833 68.8707 30.1167 68.9707 29.95C69.0707 29.7833 69.1207 29.45 69.1207 28.95V25.55C69.1207 25.05 69.0874 24.7333 69.0207 24.6C68.9874 24.4333 68.8207 24.2333 68.5207 24C68.2207 23.7667 67.9874 23.6333 67.8207 23.6C67.654 23.5333 67.2707 23.5 66.6707 23.5H59.3707C58.7707 23.5 58.3874 23.5333 58.2207 23.6C58.054 23.6333 57.8207 23.7667 57.5207 24C57.2207 24.2333 57.0374 24.4333 56.9707 24.6C56.9374 24.7333 56.9207 25.05 56.9207 25.55ZM100.541 16.5H96.341V15.55C96.341 15.05 96.3077 14.7333 96.241 14.6C96.2077 14.4333 96.041 14.2333 95.741 14C95.441 13.7667 95.2077 13.6333 95.041 13.6C94.8744 13.5333 94.491 13.5 93.891 13.5H87.191C86.591 13.5 86.2077 13.5333 86.041 13.6C85.8743 13.6333 85.641 13.7667 85.341 14C85.041 14.2333 84.8577 14.4333 84.791 14.6C84.7577 14.7333 84.741 15.05 84.741 15.55V29.45C84.741 29.95 84.7577 30.2833 84.791 30.45C84.8577 30.5833 85.041 30.7667 85.341 31C85.641 31.2333 85.8743 31.3833 86.041 31.45C86.2077 31.4833 86.591 31.5 87.191 31.5H93.891C94.491 31.5 94.8744 31.4833 95.041 31.45C95.2077 31.3833 95.441 31.2333 95.741 31C96.041 30.7667 96.2077 30.5833 96.241 30.45C96.3077 30.2833 96.341 29.95 96.341 29.45V28.5H100.541V30.5C100.541 31.5 100.141 32.3333 99.341 33L98.141 34C97.341 34.6667 96.541 35 95.741 35H85.341C84.541 35 83.741 34.6667 82.941 34L81.741 33C80.941 32.3333 80.541 31.5 80.541 30.5V14.5C80.541 13.5 80.941 12.6667 81.741 12L82.941 11C83.741 10.3333 84.541 10 85.341 10H95.741C96.541 10 97.341 10.3333 98.141 11L99.341 12C100.141 12.6667 100.541 13.5 100.541 14.5V16.5ZM110.673 35H106.473V10H110.673V35ZM111.123 2.2V2.6C111.123 3.23333 111.09 3.63333 111.023 3.8C110.99 3.96667 110.84 4.16667 110.573 4.4C110.307 4.66666 109.69 4.8 108.723 4.8H108.473C107.74 4.8 107.29 4.78333 107.123 4.75C106.957 4.71667 106.757 4.6 106.523 4.4C106.29 4.16667 106.14 3.96667 106.073 3.8C106.04 3.63333 106.023 3.23333 106.023 2.6V2.2C106.023 1.56667 106.04 1.16667 106.073 1C106.14 0.833331 106.307 0.633331 106.573 0.399998C106.773 0.199999 106.957 0.0833319 107.123 0.049997C107.29 0.0166641 107.74 -2.38419e-06 108.473 -2.38419e-06H108.673C109.673 -2.38419e-06 110.323 0.133331 110.623 0.399998C110.857 0.633331 110.99 0.833331 111.023 1C111.09 1.16667 111.123 1.56667 111.123 2.2Z" fill="#826357"/>
</svg>
