<svg width="173" height="37" viewBox="0 0 173 37" fill="none" xmlns="http://www.w3.org/2000/svg">
<path d="M22.15 31.85L0.7 19.25V16.65L22 5.4V9.5L5.2 18L22.15 27.45V31.85ZM33.75 34.6C32.25 34.6 30.85 34.3167 29.55 33.75C28.25 33.1833 27.1167 32.3167 26.15 31.15L28.4 28L28.75 27.6L29.05 27.85C29.0833 28.1167 29.15 28.3833 29.25 28.65C29.3833 28.8833 29.65 29.1833 30.05 29.55C30.5833 29.95 31.1333 30.2667 31.7 30.5C32.2667 30.7 32.9 30.8 33.6 30.8C34.6333 30.8 35.4833 30.5667 36.15 30.1C36.8167 29.6 37.3 28.8 37.6 27.7C37.9333 26.6 38.1 25.1667 38.1 23.4V6.35H32.2V2.85H47V6.35H42.3V23.5C42.3333 25.4667 42.1167 27.1667 41.65 28.6C41.2167 30 40.5833 31.15 39.75 32.05C38.95 32.95 38.0333 33.6 37 34C35.9667 34.4 34.8833 34.6 33.75 34.6ZM59.35 34.55C56.75 34.55 54.75 33.9667 53.35 32.8C51.95 31.6 51.25 30.0667 51.25 28.2C51.25 26.9667 51.5333 25.85 52.1 24.85C52.7 23.8167 53.5333 22.95 54.6 22.25C55.6667 21.55 56.9333 21.0167 58.4 20.65C59.8667 20.25 61.4833 20.05 63.25 20.05C63.7167 20.05 64.2 20.05 64.7 20.05C65.2333 20.05 65.7833 20.0833 66.35 20.15C66.95 20.1833 67.55 20.2333 68.15 20.3L68.3 23.45C67.7667 23.3833 67.2167 23.3333 66.65 23.3C66.0833 23.2333 65.5167 23.2 64.95 23.2C64.4167 23.1667 63.9 23.15 63.4 23.15C62.1667 23.15 61.05 23.25 60.05 23.45C59.0833 23.65 58.2667 23.95 57.6 24.35C56.9333 24.7167 56.4167 25.2 56.05 25.8C55.6833 26.3667 55.5 27.0333 55.5 27.8C55.5 28.4667 55.6167 29.0167 55.85 29.45C56.0833 29.8833 56.4 30.2333 56.8 30.5C57.2 30.7667 57.6667 30.9667 58.2 31.1C58.7333 31.2 59.3167 31.25 59.95 31.25C61.15 31.25 62.2 31.0667 63.1 30.7C64.0333 30.3 64.8167 29.7167 65.45 28.95C66.1167 28.1833 66.6167 27.25 66.95 26.15C67.2833 25.0167 67.45 23.7 67.45 22.2C67.45 20.0667 67.2 18.4 66.7 17.2C66.2333 16 65.5167 15.1667 64.55 14.7C63.5833 14.2 62.3667 13.95 60.9 13.95C59.8 13.95 58.7333 14.15 57.7 14.55C56.7 14.9167 55.75 15.55 54.85 16.45L52.65 13.8C53.8167 12.6667 55.1333 11.8333 56.6 11.3C58.0667 10.7667 59.5833 10.5 61.15 10.5C62.65 10.5 64.0167 10.6833 65.25 11.05C66.4833 11.3833 67.55 11.9667 68.45 12.8C69.3833 13.6333 70.1 14.75 70.6 16.15C71.1 17.55 71.35 19.3167 71.35 21.45V34H66.8V30.85C66.3667 31.5833 65.85 32.2 65.25 32.7C64.6833 33.1667 64.0667 33.5333 63.4 33.8C62.7667 34.0667 62.1 34.25 61.4 34.35C60.7 34.4833 60.0167 34.55 59.35 34.55ZM88.15 34.55C86.45 34.55 84.8833 34.25 83.45 33.65C82.05 33.05 80.8333 32.2167 79.8 31.15C78.7667 30.0833 77.95 28.8333 77.35 27.4C76.7833 25.9333 76.5 24.3333 76.5 22.6C76.5 20.9 76.7833 19.3167 77.35 17.85C77.95 16.3833 78.7667 15.1167 79.8 14.05C80.8333 12.95 82.05 12.1 83.45 11.5C84.8833 10.8667 86.4333 10.55 88.1 10.55C90.0667 10.55 91.8 10.9333 93.3 11.7C94.8333 12.4667 96.0667 13.5167 97 14.85L94.45 17.5L94.15 17.85L93.85 17.55C93.85 17.2833 93.8 17.0333 93.7 16.8C93.6 16.5333 93.35 16.2 92.95 15.8C92.25 15.1667 91.4833 14.7333 90.65 14.5C89.85 14.2333 88.9167 14.1 87.85 14.1C86.95 14.1 86.0833 14.3 85.25 14.7C84.4167 15.0667 83.6667 15.6167 83 16.35C82.3667 17.05 81.85 17.9167 81.45 18.95C81.0833 19.9833 80.9 21.1333 80.9 22.4C80.9 23.6667 81.0833 24.8167 81.45 25.85C81.85 26.85 82.3833 27.7333 83.05 28.5C83.7167 29.2333 84.5 29.8167 85.4 30.25C86.3333 30.65 87.3167 30.85 88.35 30.85C89.0833 30.85 89.8 30.75 90.5 30.55C91.2 30.35 91.8667 30.05 92.5 29.65C93.1333 29.2167 93.7167 28.6833 94.25 28.05L96.7 30.85C95.5333 32.1167 94.2167 33.05 92.75 33.65C91.2833 34.25 89.75 34.55 88.15 34.55ZM103.75 34V30.6H109.55V14.45H104.05V11H113.85V30.6H119.15V34H103.75ZM111.45 6.55C110.65 6.55 109.967 6.26667 109.4 5.7C108.833 5.13333 108.55 4.46667 108.55 3.7C108.55 2.86667 108.817 2.18333 109.35 1.65C109.917 1.11666 110.617 0.849998 111.45 0.849998C112.217 0.849998 112.883 1.13333 113.45 1.7C114.05 2.26667 114.35 2.93333 114.35 3.7C114.35 4.46667 114.05 5.13333 113.45 5.7C112.883 6.26667 112.217 6.55 111.45 6.55ZM130.6 36.1L126.9 34.4L142.45 0.7L146.15 2.6L130.6 36.1ZM150.95 31.85V27.5L167.85 18L151.05 9.5V5.4L172.4 16.65V19.25L150.95 31.85Z" fill="#826357"/>
</svg>
