<svg width="173" height="37" viewBox="0 0 173 37" fill="none" xmlns="http://www.w3.org/2000/svg">
<path d="M22.3 32.2L0.65 19.4V16.35L22.15 4.9V10.05L6.45 17.95L22.3 26.7V32.2ZM33.7 34.75C32.1 34.75 30.5833 34.4667 29.15 33.9C27.7167 33.3333 26.5167 32.4667 25.55 31.3L28.35 26.85L28.6 26.45L29 26.7C29.0667 26.9667 29.15 27.2333 29.25 27.5C29.35 27.7667 29.6 28.1 30 28.5C30.4667 28.8333 30.9667 29.1 31.5 29.3C32.0333 29.4667 32.6 29.55 33.2 29.55C34.0667 29.55 34.7833 29.3167 35.35 28.85C35.95 28.35 36.4 27.6167 36.7 26.65C37 25.65 37.15 24.4167 37.15 22.95V7.4H31.4V2.85H47.35V7.4H42.75V23.35C42.7833 25.3167 42.55 27.0167 42.05 28.45C41.55 29.85 40.8667 31.0167 40 31.95C39.1333 32.8833 38.15 33.5833 37.05 34.05C35.95 34.5167 34.8333 34.75 33.7 34.75ZM58.9 34.6C56.3333 34.6 54.3333 34 52.9 32.8C51.5 31.5667 50.8 29.9833 50.8 28.05C50.8 26.8167 51.0667 25.6833 51.6 24.65C52.1667 23.5833 53 22.6667 54.1 21.9C55.2 21.1333 56.5667 20.55 58.2 20.15C59.8333 19.7167 61.7 19.5 63.8 19.5C64.0667 19.5 64.4 19.5 64.8 19.5C65.2 19.5 65.6333 19.5167 66.1 19.55C66.5667 19.55 67 19.5833 67.4 19.65L67.55 23.55C67.2167 23.5167 66.8167 23.5 66.35 23.5C65.8833 23.4667 65.4 23.45 64.9 23.45C64.4333 23.4167 64.0333 23.4 63.7 23.4C62.3667 23.4 61.2333 23.5 60.3 23.7C59.4 23.9 58.6667 24.1833 58.1 24.55C57.5333 24.8833 57.1167 25.3 56.85 25.8C56.5833 26.2667 56.45 26.7833 56.45 27.35C56.45 27.8833 56.5333 28.3333 56.7 28.7C56.9 29.0667 57.15 29.3667 57.45 29.6C57.7833 29.8 58.1667 29.95 58.6 30.05C59.0333 30.15 59.5 30.2 60 30.2C61 30.2 61.8667 30.05 62.6 29.75C63.3667 29.4167 64 28.9 64.5 28.2C65.0333 27.5 65.4167 26.6333 65.65 25.6C65.9167 24.5333 66.05 23.2833 66.05 21.85C66.05 19.9167 65.85 18.4333 65.45 17.4C65.05 16.3667 64.4667 15.65 63.7 15.25C62.9333 14.8167 61.9667 14.6 60.8 14.6C59.7333 14.6 58.7167 14.7833 57.75 15.15C56.8167 15.4833 55.9 16.1167 55 17.05L51.9 13.65C53.2 12.4167 54.65 11.5333 56.25 11C57.85 10.4667 59.45 10.2 61.05 10.2C62.5167 10.2 63.8833 10.3667 65.15 10.7C66.4167 11.0333 67.5167 11.6 68.45 12.4C69.4167 13.1667 70.1667 14.2333 70.7 15.6C71.2667 16.9333 71.55 18.6 71.55 20.6V34H65.7V31.5C65.2667 32.0667 64.8 32.55 64.3 32.95C63.8 33.35 63.2667 33.6667 62.7 33.9C62.1333 34.1333 61.5333 34.3 60.9 34.4C60.2667 34.5333 59.6 34.6 58.9 34.6ZM87.9 34.6C86.2 34.6 84.6167 34.3 83.15 33.7C81.7167 33.1 80.45 32.2667 79.35 31.2C78.2833 30.1333 77.45 28.8667 76.85 27.4C76.25 25.9333 75.95 24.3167 75.95 22.55C75.95 20.85 76.25 19.25 76.85 17.75C77.45 16.25 78.2833 14.95 79.35 13.85C80.45 12.7167 81.7167 11.8333 83.15 11.2C84.6167 10.5333 86.2167 10.2 87.95 10.2C90.0833 10.2 91.95 10.6 93.55 11.4C95.15 12.2 96.4167 13.3 97.35 14.7L94.2 18.15L93.9 18.5L93.5 18.2C93.5 17.9333 93.4667 17.6667 93.4 17.4C93.3333 17.1 93.1167 16.75 92.75 16.35C92.1167 15.7167 91.4167 15.3 90.65 15.1C89.8833 14.8667 89 14.75 88 14.75C87.1667 14.75 86.3667 14.9333 85.6 15.3C84.8667 15.6333 84.2 16.1333 83.6 16.8C83 17.4333 82.5333 18.2333 82.2 19.2C81.8667 20.1667 81.7 21.2833 81.7 22.55C81.7 23.6833 81.8667 24.7167 82.2 25.65C82.5667 26.55 83.0333 27.3333 83.6 28C84.2 28.6333 84.8833 29.1333 85.65 29.5C86.45 29.8333 87.2833 30 88.15 30C88.85 30 89.5333 29.9 90.2 29.7C90.8667 29.5 91.5167 29.2 92.15 28.8C92.8167 28.3667 93.4333 27.8 94 27.1L97.15 30.7C95.9167 32.0667 94.4833 33.0667 92.85 33.7C91.2167 34.3 89.5667 34.6 87.9 34.6ZM103.2 34V29.55H108.9V15.2H103.5V10.75H114.6V29.55H119.8V34H103.2ZM111.5 6.9C110.533 6.9 109.7 6.56666 109 5.9C108.3 5.23333 107.95 4.43333 107.95 3.5C107.95 2.5 108.283 1.68333 108.95 1.05C109.617 0.416665 110.467 0.0999984 111.5 0.0999984C112.433 0.0999984 113.25 0.433331 113.95 1.1C114.683 1.76667 115.05 2.56667 115.05 3.5C115.05 4.43333 114.683 5.23333 113.95 5.9C113.25 6.56666 112.433 6.9 111.5 6.9ZM131.5 36.15L126.3 33.9L141.7 0.649997L146.8 3.25L131.5 36.15ZM150.9 32.2V26.85L166.7 17.95L151 10.05V4.9L172.55 16.35V19.4L150.9 32.2Z" fill="white"/>
</svg>
