<svg width="115" height="33" viewBox="0 0 115 33" fill="none" xmlns="http://www.w3.org/2000/svg">
<path d="M8.7 32.75C7.1 32.75 5.58333 32.4667 4.15 31.9C2.71667 31.3333 1.51667 30.4667 0.55 29.3L3.35 24.85L3.6 24.45L4 24.7C4.06667 24.9667 4.15 25.2333 4.25 25.5C4.35 25.7667 4.6 26.1 5 26.5C5.46667 26.8333 5.96667 27.1 6.5 27.3C7.03333 27.4667 7.6 27.55 8.2 27.55C9.06667 27.55 9.78333 27.3167 10.35 26.85C10.95 26.35 11.4 25.6167 11.7 24.65C12 23.65 12.15 22.4167 12.15 20.95V5.4H6.4V0.849999H22.35V5.4H17.75V21.35C17.7833 23.3167 17.55 25.0167 17.05 26.45C16.55 27.85 15.8667 29.0167 15 29.95C14.1333 30.8833 13.15 31.5833 12.05 32.05C10.95 32.5167 9.83333 32.75 8.7 32.75ZM42.35 24.75H30.15L30.95 20.7H41.4L42.35 24.75ZM36.5 11.1L30.2 32H24.6L35.15 0.649998H37.85L48.4 32H42.7L36.5 11.1ZM62.95 32.55C61.25 32.55 59.65 32.25 58.15 31.65C56.65 31.0167 55.3167 30.05 54.15 28.75C53.0167 27.45 52.1333 25.8 51.5 23.8C50.8667 21.7667 50.55 19.3667 50.55 16.6C50.55 14.1667 50.8 12.0333 51.3 10.2C51.8 8.36667 52.4667 6.83333 53.3 5.6C54.1667 4.33333 55.1333 3.31666 56.2 2.55C57.3 1.78333 58.4333 1.23333 59.6 0.899998C60.8 0.566665 61.9833 0.399999 63.15 0.399999C65.5167 0.399999 67.5167 0.933332 69.15 2C70.8167 3.06667 72.1 4.56667 73 6.5L69.45 9.15L69.05 9.4L68.8 9C68.8333 8.73333 68.8 8.48333 68.7 8.25C68.6333 8.01667 68.4667 7.66667 68.2 7.2C67.4667 6.3 66.7 5.7 65.9 5.4C65.1333 5.1 64.3167 4.95 63.45 4.95C62.4833 4.95 61.5667 5.2 60.7 5.7C59.8333 6.16667 59.05 6.88333 58.35 7.85C57.65 8.81667 57.1 10.0167 56.7 11.45C56.3333 12.85 56.15 14.4833 56.15 16.35C56.15 18.15 56.3167 19.7667 56.65 21.2C57.0167 22.6 57.5 23.8 58.1 24.8C58.7333 25.8 59.4667 26.5667 60.3 27.1C61.1667 27.6333 62.1 27.9 63.1 27.9C63.9 27.9 64.6333 27.7833 65.3 27.55C66 27.3167 66.6333 26.95 67.2 26.45C67.7667 25.95 68.2833 25.2833 68.75 24.45L72.65 27.35C71.4833 29.2167 70.1167 30.55 68.55 31.35C66.9833 32.15 65.1167 32.55 62.95 32.55ZM77.5 32V27.45H83.6V5.4H77.85V0.849999H95.05V5.4H88.95V27.45H95.3V32H77.5ZM110.95 32.6C109.883 32.6 108.983 32.2333 108.25 31.5C107.517 30.7667 107.15 29.8833 107.15 28.85C107.15 27.8167 107.517 26.9333 108.25 26.2C108.983 25.4667 109.883 25.1 110.95 25.1C111.983 25.1 112.867 25.4667 113.6 26.2C114.333 26.9333 114.7 27.8167 114.7 28.85C114.7 29.8833 114.333 30.7667 113.6 31.5C112.867 32.2333 111.983 32.6 110.95 32.6Z" fill="white"/>
</svg>
